<?xml version="1.0" standalone="no"?>
<!DOCTYPE svg PUBLIC "-//W3C//DTD SVG 20010904//EN"
 "http://www.w3.org/TR/2001/REC-SVG-20010904/DTD/svg10.dtd">
<svg version="1.0" xmlns="http://www.w3.org/2000/svg"
 width="746.000000pt" height="746.000000pt" viewBox="0 0 746.000000 746.000000"
 preserveAspectRatio="xMidYMid meet">
<metadata>
Created by potrace 1.11, written by Peter Selinger 2001-2013
</metadata>
<g transform="translate(0.000000,746.000000) scale(0.100000,-0.100000)"
fill="#000000" stroke="none">
<path d="M3395 7440 c-440 -67 -826 -213 -1170 -442 -177 -118 -278 -200 -425
-348 -250 -250 -441 -547 -574 -891 l-37 -96 3 -164 3 -164 352 -3 351 -2 4
117 3 118 58 114 c32 62 82 150 112 195 463 702 1402 1041 2254 815 467 -124
858 -408 1141 -829 102 -152 100 -144 100 -350 l0 -180 355 0 355 0 0 271 0
272 -52 96 c-444 827 -1134 1327 -2018 1467 -138 21 -185 24 -425 23 -206 -1
-299 -5 -390 -19z"/>
<path d="M3730 4240 c0 -1590 0 -1620 -19 -1620 -11 0 -22 -6 -25 -12 -5 -10
-7 -10 -12 0 -3 6 -14 12 -25 12 -10 0 -19 5 -19 10 0 6 -18 10 -40 10 -22 0
-40 5 -40 10 0 6 -63 10 -170 10 -107 0 -170 -4 -170 -10 0 -5 -13 -10 -30
-10 -16 0 -30 -4 -30 -10 0 -5 -13 -10 -30 -10 -16 0 -30 -4 -30 -10 0 -5 -9
-10 -20 -10 -11 0 -20 -4 -20 -10 0 -5 -9 -10 -20 -10 -11 0 -20 -4 -20 -10 0
-5 -8 -10 -18 -10 -10 0 -24 -9 -32 -20 -8 -11 -20 -20 -27 -20 -19 0 -183
-166 -183 -185 0 -8 -4 -15 -10 -15 -5 0 -10 -8 -10 -18 0 -10 -9 -24 -20 -32
-12 -8 -20 -26 -20 -42 0 -15 -4 -28 -10 -28 -5 0 -10 -9 -10 -20 0 -11 -4
-20 -10 -20 -5 0 -10 -18 -10 -40 0 -22 -4 -40 -10 -40 -6 0 -10 -43 -10 -109
0 -63 4 -112 10 -116 6 -3 10 -14 10 -24 0 -21 22 -71 33 -71 4 0 7 -7 7 -15
0 -20 105 -125 125 -125 8 0 15 -4 15 -10 0 -5 9 -10 20 -10 11 0 20 -4 20 -9
0 -5 14 -17 32 -25 25 -13 67 -16 204 -16 104 0 175 4 179 10 3 6 19 10 35 10
15 0 30 7 34 15 3 8 16 15 30 15 14 0 28 4 31 10 3 5 17 10 29 10 13 0 29 7
36 15 7 9 32 24 54 35 23 10 52 30 65 44 14 14 29 26 36 26 15 0 135 122 135
138 0 6 4 12 8 12 5 0 15 12 23 28 8 15 22 34 31 43 10 9 21 30 24 47 4 18 13
37 20 43 8 6 14 22 14 35 0 12 4 26 10 29 5 3 10 17 10 30 0 13 5 27 10 30 5
3 10 17 10 30 0 13 5 27 10 30 6 3 10 26 10 50 0 24 5 47 10 50 6 3 10 35 10
70 0 35 4 67 10 70 7 4 10 374 10 1076 0 987 1 1072 17 1087 12 12 18 13 21 4
2 -6 12 -12 23 -12 10 0 19 -4 19 -10 0 -5 9 -10 20 -10 11 0 20 -4 20 -10 0
-5 8 -10 18 -10 10 0 24 -9 32 -20 8 -11 20 -20 27 -20 7 0 27 -13 45 -30 17
-16 36 -30 41 -30 14 0 217 -206 217 -220 0 -7 14 -25 30 -40 17 -15 30 -34
30 -42 0 -7 9 -20 20 -28 11 -8 20 -22 20 -32 0 -10 5 -18 10 -18 6 0 10 -8
10 -18 0 -10 9 -24 20 -32 11 -8 20 -22 20 -32 0 -10 5 -18 10 -18 6 0 10 -13
10 -30 0 -16 5 -30 10 -30 6 0 10 -13 10 -30 0 -16 5 -30 10 -30 6 0 10 -9 10
-20 0 -11 5 -20 10 -20 6 0 10 -22 10 -50 0 -27 5 -50 10 -50 6 0 10 -27 10
-60 0 -33 4 -60 10 -60 6 0 10 -75 10 -205 0 -130 -4 -205 -10 -205 -6 0 -10
-27 -10 -60 0 -33 -4 -60 -10 -60 -6 0 -10 -27 -10 -60 0 -33 -4 -60 -10 -60
-5 0 -10 -13 -10 -30 0 -16 -4 -30 -10 -30 -5 0 -10 -13 -10 -30 0 -16 -4 -30
-10 -30 -5 0 -10 -13 -10 -30 0 -16 -4 -30 -10 -30 -5 0 -10 -9 -10 -20 0 -11
-4 -20 -10 -20 -5 0 -10 -9 -10 -20 0 -11 -4 -20 -10 -20 -5 0 -10 -9 -10 -20
0 -11 -4 -20 -10 -20 -15 0 -12 -29 4 -46 8 -8 22 -14 30 -14 9 0 16 -4 16
-10 0 -5 9 -10 20 -10 11 0 20 -4 20 -10 0 -5 14 -10 30 -10 23 0 30 4 30 20
0 11 5 20 10 20 6 0 10 9 10 20 0 11 5 20 10 20 6 0 10 9 10 20 0 11 5 20 10
20 6 0 10 9 10 20 0 11 5 20 10 20 6 0 10 9 10 19 0 11 3 21 8 23 10 4 52 87
52 104 0 7 9 29 20 49 11 20 20 44 20 55 0 10 5 22 10 25 6 3 10 17 10 31 0
13 5 24 10 24 6 0 10 13 10 29 0 17 5 33 10 36 6 3 10 26 10 51 0 24 5 44 10
44 6 0 10 23 10 50 0 28 5 50 10 50 6 0 10 78 10 215 0 137 -4 215 -10 215 -6
0 -10 27 -10 60 0 33 -4 60 -10 60 -5 0 -10 18 -10 40 0 22 -4 40 -10 40 -5 0
-10 23 -10 50 0 28 -4 50 -10 50 -5 0 -10 14 -10 30 0 17 -4 30 -10 30 -5 0
-10 14 -10 30 0 17 -4 30 -10 30 -5 0 -10 14 -10 30 0 17 -4 30 -10 30 -5 0
-10 9 -10 20 0 11 -4 20 -10 20 -5 0 -10 13 -10 28 0 16 -8 34 -20 42 -11 8
-20 22 -20 31 0 19 -27 76 -41 84 -5 4 -18 26 -29 50 -11 24 -24 47 -30 50 -6
3 -19 25 -30 49 -10 23 -26 49 -35 56 -8 7 -15 16 -15 21 0 8 -20 36 -47 64
-7 8 -13 20 -13 27 0 8 -9 20 -20 28 -11 8 -20 21 -20 30 0 9 -9 22 -20 30
-11 8 -20 19 -20 25 0 5 -18 28 -40 50 -21 22 -39 45 -40 50 0 6 -18 29 -40
50 -22 21 -40 44 -40 50 0 6 -10 20 -22 32 -35 30 -78 82 -78 92 0 5 -13 22
-30 38 -16 15 -30 36 -30 45 0 10 -4 18 -10 18 -5 0 -10 8 -10 18 0 10 -9 24
-20 32 -11 8 -20 22 -20 32 0 10 -4 18 -10 18 -5 0 -10 6 -10 13 0 7 -9 23
-20 35 -11 12 -20 28 -20 36 0 7 -13 40 -30 71 -20 38 -30 71 -30 101 0 24 -4
44 -10 44 -5 0 -10 25 -10 56 0 80 -6 84 -144 84 l-116 0 0 -1620z"/>
<path d="M1200 3695 l0 -655 355 0 355 0 -2 653 -3 652 -352 3 -353 2 0 -655z"/>
<path d="M5570 3685 l0 -655 355 0 355 0 0 655 0 655 -355 0 -355 0 0 -655z"/>
<path d="M1210 1839 l0 -212 36 -101 c66 -183 179 -382 311 -546 85 -105 290
-302 403 -386 242 -182 543 -337 845 -435 355 -116 785 -173 1120 -149 444 31
781 122 1132 305 486 253 867 645 1142 1176 l81 156 0 196 0 197 -355 0 -355
0 0 -118 0 -117 -63 -106 c-95 -160 -171 -261 -290 -385 -175 -183 -323 -292
-532 -394 -589 -288 -1329 -274 -1960 35 -234 114 -381 220 -543 390 -103 107
-190 233 -238 343 -33 75 -34 80 -34 220 l0 142 -350 0 -350 0 0 -211z"/>
</g>
</svg>
